<svg xmlns="http://www.w3.org/2000/svg" role="img" class="inline-flex fill-current shrink-0" width="20" height="20" data-fc-idx="0"><svg viewBox="0 0 24 24"><path d="M21.23 7.134h-2.307V2.775a.772.772 0 0 0-.441-.697.795.795 0 0 0-.82.102l-4.893 4.072V1.775c0-.42-.348-.77-.769-.77-.42 0-.77.35-.77.77v4.487L6.339 2.18a.751.751 0 0 0-.82-.102.772.772 0 0 0-.441.697v4.36H2.769A.774.774 0 0 0 2 7.903v8.205c0 .42.349.77.77.77h2.307v4.359c0 .297.174.574.44.697a.73.73 0 0 0 .33.072.802.802 0 0 0 .491-.175l4.893-4.071v4.487c0 .42.348.77.769.77.42 0 .77-.35.77-.77V17.76l4.892 4.071a.802.802 0 0 0 .492.175.73.73 0 0 0 .328-.072.772.772 0 0 0 .441-.697v-4.36h2.308c.42 0 .769-.348.769-.769V7.903a.775.775 0 0 0-.77-.769Zm-3.845-2.718v2.718h-3.262l3.262-2.718Zm-10.77 0 3.262 2.718H6.615V4.416ZM3.538 15.34V8.673h6.606l-4.841 4.84a.768.768 0 0 0-.226.544v1.282H3.538Zm3.077.77v-1.734l4.616-4.615v5.99l-4.616 3.846v-3.488Zm10.77 3.487-4.616-3.847V9.76l4.616 4.616v5.22Zm3.076-4.257h-1.538v-1.282c0-.205-.082-.4-.226-.543l-4.84-4.841h6.605v6.666Z"/></svg></svg>